PathFileType	4	(X/Y/Z)	C249e_D251_DD_1_S001_1.trc
DataRate	CameraRate	NumFrames	NumMarkers	Units	OrigDataRate	OrigDataStartFrame	OrigNumFrames
50.0	50.0	6	54	mm	50.0	118	314
Frame#	Time		Q_WaistRFront		Q_WaistLFront		Q_WaistL		Q_WaistR		Q_WaistBack		Q_LThighFrontLow		Q_RThighFrontLow		Q_RKneeIn		Q_RKneeOut		Q_RShinFrontHigh		Q_LKneeIn		Q_LKneeOut		Q_LShinFrontHigh		Q_RForefoot5		Q_RForefoot2		Q_RHeelBack		Q_RAnkleOut		Q_LForefoot5		Q_LForefoot2		Q_LHeelBack		Q_LAnkleOut		Q_SpineThoracic2		Q_Chest		Q_SpineThoracic12		Q_HeadL		Q_HeadR		Q_HeadFront		Q_LShoulderTop		Q_LArm		Q_LElbowOut		Q_LElbowIn		Q_LWristOut		Q_LWristIn		Q_LHand2		Q_RShoulderTop		Q_RArm		Q_RElbowOut		Q_RElbowIn		Q_RWristOut		Q_RWristIn		Q_RHand2		RHipAngles		LHipAngles		RKneeAngles		LKneeAngles		RAnkleAngles		LAnkleAngles		RShoulderAngles		LShoulderAngles		RElbowAngles		LElbowAngles		RWristAngles		LWristAngles		Neck
			X1	Y1	Z1	X2	Y2	Z2	X3	Y3	Z3	X4	Y4	Z4	X5	Y5	Z5	X6	Y6	Z6	X7	Y7	Z7	X8	Y8	Z8	X9	Y9	Z9	X10	Y10	Z10	X11	Y11	Z11	X12	Y12	Z12	X13	Y13	Z13	X14	Y14	Z14	X15	Y15	Z15	X16	Y16	Z16	X17	Y17	Z17	X18	Y18	Z18	X19	Y19	Z19	X20	Y20	Z20	X21	Y21	Z21	X22	Y22	Z22	X23	Y23	Z23	X24	Y24	Z24	X25	Y25	Z25	X26	Y26	Z26	X27	Y27	Z27	X28	Y28	Z28	X29	Y29	Z29	X30	Y30	Z30	X31	Y31	Z31	X32	Y32	Z32	X33	Y33	Z33	X34	Y34	Z34	X35	Y35	Z35	X36	Y36	Z36	X37	Y37	Z37	X38	Y38	Z38	X39	Y39	Z39	X40	Y40	Z40	X41	Y41	Z41	X42	Y42	Z42	X43	Y43	Z43	X44	Y44	Z44	X45	Y45	Z45	X46	Y46	Z46	X47	Y47	Z47	X48	Y48	Z48	X49	Y49	Z49	X50	Y50	Z50	X51	Y51	Z51	X52	Y52	Z52	X53	Y53	Z53	X54	Y54	Z54

118	2.34000	92.85416	844.89087	202.66666	-163.53278	850.56683	207.21458	-162.14630	860.46429	273.02325	94.24062	854.78833	268.47534	-33.95285	857.62634	270.74930	-92.89394	482.46002	258.08310	26.86681	478.39624	241.93317	-30.04858	426.18512	257.77429	109.88976	424.18396	254.13417	37.05408	224.20773	256.24457	-35.15638	431.80289	276.02542	-175.04488	427.50650	272.45599	-98.62212	229.15489	261.67770	114.81282	47.25902	199.79375	64.96065	48.27339	196.08820	54.08633	32.91722	338.18124	106.29816	70.25598	326.03766	-172.37926	45.18164	195.40596	-122.57681	47.76668	191.79594	-111.54427	33.84111	334.02411	-164.89822	69.39294	321.48819	-32.23368	1318.01062	401.98090	-31.88910	774.52087	74.43625	-32.23368	1318.01062	401.98090	-98.86782	1493.03186	252.51613	40.85470	1491.09241	261.11023	-24.85784	1483.59070	187.45163	-161.66028	1374.24268	293.82034	-260.58585	1455.33044	276.69846	-255.21765	1560.97620	269.14026	-312.45734	1522.02795	196.98315	-385.93344	1740.48132	185.14960	-347.29193	1742.37317	153.47546	-375.83395	1850.35913	169.05667	92.56588	1379.68091	289.20322	180.53905	1468.89441	286.06061	179.81641	1568.91370	250.81017	268.82584	1525.69617	236.33395	333.55380	1746.13342	214.46327	320.87930	1735.86096	167.19980	358.47482	1839.87671	196.41258	-8.84441	-4.33205	0.05812	-6.49742	-7.87727	-2.22435	-6.09336	4.80897	-0.03153	0.01715	4.94270	-0.09817	-12.03697	5.95108	0.27985	-7.86310	5.90033	-0.64383	-23.98671	1.48737	-63.03875	24.85175	-40.52229	-67.08571	-7.95989	-40.52229	85.80491	-8.36236	-0.00000	85.80491	-19.65999	-9.55459	85.80491	-1.01426	-17.93777	-0.00000	-25.45627	-1.20408	1.05739
119	2.36000	91.86951	845.06268	202.58476	-164.50583	851.27588	207.08585	-163.11221	861.09796	272.90567	93.26311	854.88477	268.40460	-34.92456	857.99133	270.65512	-93.61762	483.08032	257.79211	25.77999	478.57217	241.78304	-31.14035	426.32263	257.51138	108.80553	424.40503	254.12431	36.09043	224.38559	256.30457	-35.84273	432.52148	275.72705	-175.72137	427.97968	272.07632	-98.94335	229.76538	261.29514	114.32138	47.66387	200.25090	64.47315	48.30964	196.41202	53.33412	33.19596	338.51059	105.30698	70.88351	326.41937	-172.17860	44.81738	195.05476	-122.39589	47.77683	191.45996	-111.33206	34.50020	333.74777	-164.95505	69.58463	321.04398	-32.33433	1318.75745	402.64587	-32.76712	775.78516	74.24426	-32.33433	1318.75745	402.64587	-97.73104	1494.33313	252.94768	41.96980	1491.62488	261.68521	-23.69124	1485.08972	187.88872	-161.27258	1375.44812	293.95078	-256.50137	1458.71582	276.53204	-248.27364	1564.16602	268.81665	-306.63098	1526.68604	196.77733	-374.12869	1747.04565	184.68195	-335.48325	1747.83411	152.96597	-360.05524	1856.51855	167.15506	93.05964	1380.56323	289.80600	177.13982	1471.62866	285.79446	173.73654	1571.41101	250.03300	263.88696	1530.53772	235.81061	322.68030	1752.53467	212.97789	310.32263	1741.71094	165.75360	345.06744	1846.80237	194.02040	-8.77357	-4.20404	0.07961	-6.47091	-8.07062	-2.30830	-6.13818	4.82831	0.04334	0.00954	4.91490	-0.03246	-11.99398	5.95982	0.66115	-7.59713	5.94665	-0.99531	-24.59201	2.13050	-64.93928	25.00816	-40.42808	-68.43439	-7.97770	-40.42808	85.60643	-8.36943	-0.00000	85.60643	-19.37981	-9.29861	85.60643	-0.13445	-17.67988	-0.00000	-25.06236	-1.42126	0.76117
120	2.38000	91.37240	845.07794	203.48973	-164.99809	850.85785	208.77632	-163.42204	860.54736	274.61166	92.94843	854.76746	269.32510	-35.23680	857.65741	271.96838	-93.26980	482.67883	258.78296	25.94588	478.39127	242.32419	-30.83038	426.20282	258.36240	109.08986	424.16101	254.10117	36.20567	224.20587	256.51672	-35.38468	432.00613	276.62085	-175.26920	427.60104	273.02664	-98.68199	229.33163	261.90710	114.05043	47.94469	199.75465	64.17847	48.44947	196.21457	53.93291	32.87344	338.33041	105.71784	70.75617	326.04437	-171.91316	44.54880	195.32077	-122.14254	47.72488	191.74326	-111.03931	33.94761	333.98041	-164.80356	68.86169	321.40497	-33.19975	1318.65649	404.91913	-33.17966	776.32446	75.46091	-33.19975	1318.65649	404.91913	-97.92869	1493.81238	253.34914	41.73837	1491.01221	262.58368	-23.68338	1483.82117	188.63583	-161.81239	1375.68921	295.00058	-253.63542	1460.75208	276.08575	-242.85339	1565.97717	268.44360	-301.05060	1529.80945	195.60832	-363.17911	1751.68091	182.42632	-324.08145	1751.53259	151.25989	-350.63638	1860.16003	166.50169	92.46284	1380.93665	291.73422	172.83514	1473.73584	286.68045	166.49782	1573.32300	250.77466	257.57431	1534.81616	235.86505	310.29153	1758.24329	212.16190	297.83005	1747.00635	165.06155	334.45758	1850.59045	192.55690	-8.74022	-4.21363	0.04590	-6.43902	-8.07661	-2.43349	-6.17189	4.70479	-0.11308	0.01042	5.07495	-0.03467	-12.12183	5.94842	0.89282	-7.70679	5.93761	-1.28270	-25.16728	3.25076	-66.71974	25.42528	-41.28810	-69.93452	-7.78635	-41.28810	84.63661	-8.26800	-0.00000	84.63661	-19.71862	-7.27893	84.63661	-2.55561	-17.32660	-0.00000	-25.75197	-1.47411	0.70412
121	2.40000	91.74039	844.31860	203.35101	-164.60446	850.34418	209.53281	-162.79155	859.91626	275.37921	93.55329	853.89069	269.19745	-34.61913	856.90350	272.28833	-93.27590	481.98169	258.65887	26.34401	477.57114	242.21645	-30.38921	425.30301	258.23141	109.53086	423.41025	253.89577	36.86411	223.37770	256.45071	-35.45007	431.17093	276.30838	-175.34770	427.02206	272.92566	-99.13254	228.63708	261.32187	115.03433	48.17659	199.62733	65.16122	48.48019	196.08044	54.96088	31.99747	338.09726	106.57826	70.18475	326.05133	-172.71184	44.42259	194.40149	-122.94978	47.66894	190.76848	-111.62144	33.09111	332.90802	-165.43900	68.02248	320.61176	-32.37943	1318.25903	406.00592	-32.72828	776.41412	75.74731	-32.37943	1318.25903	406.00592	-97.08976	1493.69031	254.44778	42.60933	1490.59631	263.08453	-23.14966	1483.32898	189.44389	-161.38760	1375.05334	294.78229	-249.62195	1461.60498	274.04327	-236.44727	1566.57581	266.65924	-293.92865	1531.65417	192.65677	-351.10901	1754.78467	178.37985	-311.40994	1753.82153	147.99805	-333.59647	1864.20361	166.18781	93.19613	1381.01343	293.12280	170.01660	1475.44348	286.67642	160.95372	1574.56494	250.07323	252.91948	1538.29907	235.00407	299.76096	1762.82202	209.39232	287.37173	1750.91492	162.43776	321.23123	1855.72827	192.18291	-8.65319	-4.16496	0.04319	-6.45021	-8.03116	-2.52577	-6.20025	4.75420	0.06798	0.00461	5.07785	-0.03676	-12.51316	5.96158	1.10200	-7.91676	5.94188	-1.43783	-25.81897	3.87764	-68.34528	25.90527	-42.70393	-71.46025	-7.82002	-42.70393	83.90699	-8.34911	-0.00000	83.90699	-21.50702	-7.88533	83.90699	-2.54271	-19.35227	-0.00000	-26.01838	-1.58639	0.60384
122	2.42000	90.98490	844.02502	202.62595	-165.32326	850.24615	210.01308	-163.19696	859.64258	275.87543	93.11121	853.42145	268.48831	-35.04288	856.53204	272.18188	-93.35921	481.74728	258.90225	25.53593	477.15353	241.79013	-31.13947	424.90683	258.22275	108.74864	422.97141	252.97226	36.04800	222.96156	256.23752	-35.41418	431.02948	276.44244	-175.31369	426.68024	273.40909	-98.84872	228.38766	261.87027	113.87753	48.33999	199.02550	63.98216	48.53159	195.79839	54.73103	31.60417	337.82791	106.17703	69.95354	325.56580	-172.24550	44.19912	195.27678	-122.50426	47.63755	191.53697	-110.80093	32.87929	333.62750	-164.77641	67.62806	321.50745	-32.17223	1317.98242	407.29047	-33.89324	777.11853	75.43192	-32.17223	1317.98242	407.29047	-97.80992	1493.23840	255.45174	41.90898	1490.92517	264.01126	-23.87718	1482.15271	190.55911	-161.59506	1375.44690	295.11185	-245.67801	1464.11169	273.56378	-229.41212	1568.70325	267.00787	-286.61685	1535.82532	191.86371	-337.14896	1760.57385	177.89240	-296.98886	1758.62939	148.17061	-317.08759	1869.22461	165.81558	93.10751	1380.91235	294.02896	166.61905	1476.52271	286.55573	154.93501	1575.41077	250.06483	247.45576	1541.13367	233.78664	289.10165	1766.60840	207.56908	276.35605	1754.42517	160.78105	309.49371	1859.31812	186.43404	-8.46996	-4.15404	0.02026	-6.26584	-8.15540	-2.64550	-6.24438	4.77752	-0.00592	-0.02936	5.08233	-0.03203	-12.76099	5.94765	1.26575	-8.06927	5.93884	-1.56990	-26.21317	4.70048	-69.75987	26.24787	-44.53029	-73.57943	-7.74856	-44.53029	83.14265	-8.38441	-0.00000	83.14265	-19.62546	-6.82288	83.14265	-2.73802	-18.69349	-0.00000	-27.11864	-1.14118	0.92379
123	2.44000	90.24535	843.90100	201.68138	-166.03372	850.21844	209.94548	-163.68054	859.51379	275.81445	92.59852	853.19635	267.55038	-35.54102	856.35504	271.68240	-93.65227	481.64633	258.61386	25.00096	476.92456	241.22986	-31.62884	424.70053	257.74670	108.25465	422.75455	252.37831	35.56023	222.75203	256.18820	-35.63245	431.01721	276.09088	-175.52998	426.47693	273.25168	-98.80763	228.29887	261.45663	113.69458	48.86739	199.34050	63.80096	48.63392	196.08905	54.62617	31.53580	338.10303	105.74792	70.33215	325.89090	-171.98399	44.00772	194.81201	-122.25928	47.61303	191.01006	-110.31779	32.72068	333.06677	-164.42253	67.30774	321.06100	-32.54334	1317.92542	407.78125	-34.75888	777.78180	74.75462	-32.54334	1317.92542	407.78125	-97.34690	1493.62329	255.05371	42.27488	1490.54663	264.86652	-22.92892	1481.13684	190.97522	-161.98300	1376.25415	294.30090	-243.08984	1466.45520	271.78479	-224.56653	1570.72021	266.06888	-281.01312	1539.38135	189.70357	-326.72879	1765.17505	175.99521	-286.06927	1762.56360	147.01277	-310.72543	1871.24341	159.90576	92.94651	1380.45471	294.01273	162.57558	1477.12097	286.31137	148.24048	1575.84424	250.32259	241.35721	1543.77490	232.97810	277.51550	1770.24536	207.20309	264.57788	1757.93860	160.50017	293.85675	1864.35291	183.69109	-8.32529	-4.11950	0.08565	-6.16859	-8.22475	-2.73231	-6.31601	4.75333	0.07314	0.02485	5.05639	-0.06022	-12.96866	5.96380	1.76974	-8.08744	5.94532	-1.67764	-26.34645	5.55622	-71.24867	26.51004	-46.29548	-75.27930	-7.67696	-46.29548	83.09243	-8.11392	-0.00000	83.09243	-17.93169	-7.73550	83.09243	-4.19647	-15.25829	-0.00000	-28.09146	-1.41062	1.39067
